<svg width="48" height="48" viewBox="0 0 48 48" fill="none" xmlns="http://www.w3.org/2000/svg">
<path d="M24 13L24.0214 13.4082C24.226 15.4256 25.9286 17 28 17C29.2254 17 30.322 16.4497 31.0606 15.5723L32.4062 13.9707L33.9454 15.3887C37.0912 18.2876 39.9998 22.9682 40 28C40 36.8366 32.8366 44 24 44C15.1634 44 8 36.8366 8 28C8.00018 22.8192 10.3017 18.4004 12.9785 15.0078C15.6588 11.6109 18.8281 9.09616 20.8476 7.67188L24 5.44922V13ZM24 26C24 26 18 29.7338 18 34.4004C18.0002 37.493 20.6864 40 24 40C27.3136 40 29.9998 37.493 30 34.4004C30 29.7338 24 26 24 26Z" fill="white"/>
</svg>
