<?xml version="1.0" encoding="UTF-8"?>
<svg id="Layer_2" data-name="Layer 2" xmlns="http://www.w3.org/2000/svg" viewBox="0 0 1644.59 187.57">
  <defs>
    <style>
      .cls-1 {
        fill: #fff;
      }
    </style>
  </defs>
  <g id="Layer_1-2" data-name="Layer 1">
    <g>
      <path class="cls-1" d="M113.89,89.83c-8.46-3.63-19.28-7.2-32.47-10.71-9.89-2.85-17.36-5.22-22.42-7.09-5.06-1.87-9.34-4.45-12.86-7.75-3.52-3.3-5.27-7.36-5.27-12.2,0-6.15,2.64-11.09,7.91-14.83,5.27-3.73,12.86-5.6,22.75-5.6s18.13,2.42,24.06,7.25c5.93,4.84,9.23,11.32,9.89,19.45h37.58c-.88-18.02-7.64-32.25-20.27-42.69C110.16,5.22,93.51,0,72.85,0c-13.84,0-26.1,2.31-36.76,6.92-10.66,4.62-18.85,10.94-24.56,18.96-5.72,8.02-8.57,16.87-8.57,26.54,0,11.87,3.13,21.43,9.4,28.68,6.26,7.25,13.68,12.64,22.25,16.15,8.57,3.52,19.67,7.14,33.29,10.88,14.06,3.96,24.34,7.58,30.82,10.88,6.48,3.3,9.72,8.35,9.72,15.16,0,6.38-2.92,11.59-8.74,15.66-5.83,4.07-14.01,6.1-24.56,6.1s-18.52-2.58-25.22-7.75c-6.71-5.16-10.38-11.59-11.04-19.28H0c.44,10.99,3.96,20.93,10.55,29.83,6.59,8.9,15.54,15.94,26.87,21.1,11.32,5.16,24.12,7.75,38.4,7.75s26.31-2.31,36.76-6.92c10.44-4.62,18.51-10.99,24.23-19.12,5.71-8.13,8.57-17.36,8.57-27.69-.22-11.65-3.41-20.98-9.56-28.02-6.16-7.03-13.46-12.36-21.92-15.99Z"/>
      <path class="cls-1" d="M245.92,31.65c10.99,0,20.11,2.53,27.36,7.58,7.25,5.06,12.53,12.09,15.82,21.1h40.55c-5.06-19.34-14.78-34.23-29.17-44.67-14.4-10.44-32.58-15.66-54.56-15.66-17.36,0-32.75,3.85-46.15,11.54-13.41,7.7-23.9,18.62-31.48,32.8-7.58,14.18-11.37,30.61-11.37,49.28s3.79,35.11,11.37,49.28c7.58,14.18,18.07,25.17,31.48,32.97,13.4,7.8,28.79,11.7,46.15,11.7,21.54,0,39.56-5.44,54.06-16.32,14.5-10.88,24.39-25.55,29.67-44.01h-40.55c-7.04,19.12-21.43,28.68-43.18,28.68-15.39,0-27.64-5.49-36.76-16.48-9.12-10.99-13.68-26.26-13.68-45.82s4.56-34.78,13.68-45.66c9.12-10.88,21.37-16.32,36.76-16.32Z"/>
      <path class="cls-1" d="M478.32,11.54c-14.07-7.69-29.78-11.54-47.14-11.54s-33.08,3.85-47.14,11.54c-14.07,7.7-25.17,18.68-33.29,32.96-8.13,14.29-12.2,30.66-12.2,49.12s3.96,35.11,11.87,49.28c7.91,14.18,18.79,25.17,32.63,32.97,13.85,7.8,29.34,11.7,46.48,11.7s33.24-3.9,47.63-11.7c14.39-7.8,25.76-18.84,34.12-33.13,8.35-14.28,12.53-30.66,12.53-49.12s-4.07-34.83-12.2-49.12c-8.13-14.28-19.23-25.27-33.29-32.96ZM477.33,127.25c-5.27,9.23-12.15,16.15-20.6,20.77-8.46,4.61-17.53,6.92-27.2,6.92-15.16,0-27.75-5.33-37.74-15.99-10-10.66-15-25.76-15-45.33,0-13.19,2.42-24.34,7.25-33.46,4.83-9.12,11.37-15.99,19.61-20.6s17.19-6.92,26.87-6.92,18.68,2.31,27.03,6.92c8.35,4.62,15.05,11.49,20.11,20.6,5.05,9.12,7.58,20.27,7.58,33.46s-2.64,24.39-7.91,33.62Z"/>
      <path class="cls-1" d="M582.15,29.34V2.97h-37.58v181.64h37.58v-95.6c0-18.46,3.79-31.42,11.37-38.9,7.58-7.47,18.73-11.21,33.46-11.21h9.56V0c-12.53,0-23.35,2.59-32.47,7.75-9.12,5.17-16.43,12.36-21.92,21.59Z"/>
      <path class="cls-1" d="M778.62,11.21c-13.41-7.47-28.68-11.21-45.82-11.21s-33.57,3.85-47.3,11.54c-13.74,7.7-24.39,18.62-31.98,32.8-7.58,14.18-11.37,30.61-11.37,49.28s3.9,35.11,11.7,49.28c7.8,14.18,18.57,25.17,32.31,32.97,13.73,7.8,29.28,11.7,46.65,11.7,21.31,0,39.17-5.33,53.57-15.99,14.39-10.66,24.34-24.34,29.83-41.04h-40.55c-8.35,16.93-22.64,25.38-42.85,25.38-14.07,0-25.93-4.39-35.6-13.19-9.67-8.79-15.06-20.44-16.15-34.94h138.78c.88-5.49,1.32-11.65,1.32-18.46,0-17.58-3.74-33.13-11.21-46.65-7.47-13.52-17.92-24.01-31.32-31.48ZM681.38,77.47c1.76-14.06,7.25-25.22,16.48-33.46,9.23-8.24,20.33-12.36,33.29-12.36,14.28,0,26.26,4.18,35.93,12.53,9.67,8.35,14.61,19.45,14.83,33.29h-100.54Z"/>
      <path class="cls-1" d="M1099.86,8.9c-11.32-5.93-24.12-8.9-38.4-8.9-13.41,0-25.93,3.25-37.58,9.72-11.65,6.49-20.22,15.22-25.71,26.21-6.16-11.65-14.95-20.55-26.37-26.7-11.43-6.15-24.39-9.23-38.9-9.23-10.77,0-20.88,2.09-30.33,6.26-9.45,4.18-17.25,10-23.41,17.47V2.97h-37.58v181.64h37.58v-101.53c0-16.26,4.12-28.73,12.36-37.42,8.24-8.68,19.39-13.02,33.46-13.02s25.16,4.34,33.29,13.02c8.13,8.68,12.2,21.15,12.2,37.42v101.53h37.25v-101.53c0-16.26,4.12-28.73,12.36-37.42,8.24-8.68,19.39-13.02,33.46-13.02s25.16,4.34,33.29,13.02c8.13,8.68,12.2,21.15,12.2,37.42v101.53h37.25v-107.14c0-16.48-3.25-30.54-9.73-42.2-6.48-11.65-15.38-20.44-26.7-26.37Z"/>
      <path class="cls-1" d="M1295.18,11.54c-14.07-7.69-29.78-11.54-47.14-11.54s-33.08,3.85-47.14,11.54c-14.07,7.7-25.17,18.68-33.29,32.96-8.13,14.29-12.2,30.66-12.2,49.12s3.96,35.11,11.87,49.28c7.91,14.18,18.79,25.17,32.63,32.97,13.85,7.8,29.34,11.7,46.48,11.7s33.24-3.9,47.63-11.7c14.39-7.8,25.76-18.84,34.12-33.13,8.35-14.28,12.53-30.66,12.53-49.12s-4.07-34.83-12.2-49.12c-8.13-14.28-19.23-25.27-33.29-32.96ZM1294.19,127.25c-5.27,9.23-12.15,16.15-20.6,20.77-8.46,4.61-17.53,6.92-27.2,6.92-15.16,0-27.75-5.33-37.74-15.99-10-10.66-15-25.76-15-45.33,0-13.19,2.42-24.34,7.25-33.46,4.83-9.12,11.37-15.99,19.61-20.6s17.19-6.92,26.87-6.92,18.68,2.31,27.03,6.92c8.35,4.62,15.05,11.49,20.11,20.6,5.05,9.12,7.58,20.27,7.58,33.46s-2.64,24.39-7.91,33.62Z"/>
      <path class="cls-1" d="M1399.01,29.34V2.97h-37.58v181.64h37.58v-95.6c0-18.46,3.79-31.42,11.37-38.9,7.58-7.47,18.73-11.21,33.46-11.21h9.56V0c-12.53,0-23.35,2.59-32.47,7.75-9.12,5.17-16.43,12.36-21.92,21.59Z"/>
      <path class="cls-1" d="M1632.4,44.5c-8.13-14.28-19.23-25.27-33.29-32.96-14.07-7.69-29.78-11.54-47.14-11.54s-33.08,3.85-47.14,11.54c-14.07,7.7-25.17,18.68-33.29,32.96-8.13,14.29-12.2,30.66-12.2,49.12s3.96,35.11,11.87,49.28c7.91,14.18,18.79,25.17,32.63,32.97,13.85,7.8,29.34,11.7,46.48,11.7s33.24-3.9,47.63-11.7c14.39-7.8,25.76-18.84,34.12-33.13,8.35-14.28,12.53-30.66,12.53-49.12s-4.07-34.83-12.2-49.12ZM1598.11,127.25c-5.27,9.23-12.15,16.15-20.6,20.77-8.46,4.61-17.53,6.92-27.2,6.92-15.16,0-27.75-5.33-37.74-15.99-10-10.66-15-25.76-15-45.33,0-13.19,2.42-24.34,7.25-33.46,4.83-9.12,11.37-15.99,19.61-20.6s17.19-6.92,26.87-6.92,18.68,2.31,27.03,6.92c8.35,4.62,15.05,11.49,20.11,20.6,5.05,9.12,7.58,20.27,7.58,33.46s-2.64,24.39-7.91,33.62Z"/>
    </g>
  </g>
</svg>