<svg width="48" height="48" viewBox="0 0 48 48" fill="none" xmlns="http://www.w3.org/2000/svg">
<path d="M24 34C29.5228 34 34 29.5228 34 24C34 18.4772 29.5228 14 24 14C18.4772 14 14 18.4772 14 24C14 29.5228 18.4772 34 24 34Z" fill="white"/>
<path d="M26 4H22V10H26V4Z" fill="white"/>
<path d="M26 38H22V44H26V38Z" fill="white"/>
<path d="M10 22H4V26H10V22Z" fill="white"/>
<path d="M44 22H38V26H44V22Z" fill="white"/>
<path d="M15.7317 5.68025L12.2677 7.68025L15.2677 12.8762L18.7317 10.8762L15.7317 5.68025Z" fill="white"/>
<path d="M32.7322 35.122L29.2673 37.1225L32.2673 42.3185L35.7322 40.318L32.7322 35.122Z" fill="white"/>
<path d="M10.8751 29.2671L5.67908 32.2671L7.67958 35.732L12.8756 32.732L10.8751 29.2671Z" fill="white"/>
<path d="M40.3213 12.2694L35.1247 15.2688L37.1248 18.7341L42.3214 15.7347L40.3213 12.2694Z" fill="white"/>
<path d="M7.6793 12.2679L5.6788 15.7327L10.8748 18.7327L12.8753 15.2679L7.6793 12.2679Z" fill="white"/>
<path d="M37.124 29.2688L35.1235 32.7336L40.3195 35.7336L42.32 32.2688L37.124 29.2688Z" fill="white"/>
<path d="M15.267 35.1231L12.267 40.3191L15.731 42.3191L18.731 37.1231L15.267 35.1231Z" fill="white"/>
<path d="M32.2688 5.67989L29.2687 10.875L32.7336 12.8759L35.7337 7.68079L32.2688 5.67989Z" fill="white"/>
</svg>
