<svg width="48" height="48" viewBox="0 0 48 48" fill="none" xmlns="http://www.w3.org/2000/svg">
<path d="M24 42.16V5.83502L11.303 15.999L4 15.998V31.998L11.303 31.999L24 42.16Z" fill="white"/>
<path d="M28 27.999V31.999C32.411 31.999 36 28.41 36 23.999C36 19.588 32.411 15.999 28 15.999V19.999C30.206 19.999 32 21.793 32 23.999C32 26.205 30.206 27.999 28 27.999Z" fill="white"/>
<path d="M44 23.999C44 14.625 36.374 6.99902 27 6.99902V10.999C34.168 10.999 40 16.831 40 23.999C40 31.167 34.168 36.999 27 36.999V40.999C36.374 40.999 44 33.373 44 23.999Z" fill="white"/>
</svg>
